<svg width="800" height="600" viewBox="0 0 800 600" fill="none" xmlns="http://www.w3.org/2000/svg">
<path d="M421 384.575L673.107 453.075L541.107 488.444L289 420.892L421 384.575ZM421 384.575V124.892" stroke="#C9C9C9" stroke-width="3" stroke-linejoin="round" stroke-dasharray="10 10"/>
<path d="M428.817 373.335L648.107 432.919L533.289 463.684L314 404.925L428.817 373.335Z" fill="#E1E1E1"/>
<path d="M486.021 256.999L496.563 259.972V261.027C495.593 260.83 494.952 260.83 494.641 261.027C494.348 261.23 494.202 261.598 494.202 262.13C494.202 262.72 494.358 263.477 494.669 264.401L500.05 280.952L505.458 270.24L504.031 265.986C503.591 264.721 503.015 263.769 502.301 263.131C501.898 262.751 501.148 262.377 500.05 262.011V260.955L512.02 264.331V265.387C510.702 265.072 509.769 265.056 509.22 265.339C508.854 265.54 508.671 265.973 508.671 266.638C508.671 267.019 508.744 267.429 508.89 267.87L514.601 284.485L519.899 271.517C520.265 270.593 520.448 269.827 520.448 269.219C520.448 268.857 520.265 268.482 519.899 268.094C519.552 267.71 518.856 267.353 517.813 267.02V265.965L525.747 268.203V269.258C524.155 269.056 522.983 269.848 522.233 271.633L513.832 291.77L512.706 291.453L506.419 272.992L499.089 287.612L498.073 287.326L490.002 263.085C489.471 261.547 488.949 260.468 488.437 259.848C487.924 259.209 487.119 258.611 486.021 258.054V256.999ZM542.302 295.236C539.721 296.581 538.102 297.322 537.443 297.459C536.454 297.656 535.402 297.597 534.286 297.282C532.547 296.792 531.11 295.768 529.975 294.212C528.859 292.661 528.3 290.878 528.3 288.862C528.3 287.588 528.575 286.562 529.124 285.785C529.874 284.704 531.174 283.853 533.023 283.234C534.889 282.619 537.983 282.103 542.302 281.686V280.659C542.302 278.054 541.9 276.153 541.094 274.956C540.307 273.764 539.154 272.954 537.635 272.525C536.482 272.2 535.567 272.265 534.889 272.721C534.194 273.171 533.846 273.815 533.846 274.652L533.901 276.322C533.901 277.196 533.682 277.809 533.242 278.161C532.821 278.518 532.263 278.598 531.568 278.402C530.89 278.211 530.332 277.806 529.893 277.188C529.472 276.575 529.261 275.84 529.261 274.984C529.261 273.349 530.067 272.074 531.677 271.159C533.288 270.244 535.548 270.197 538.459 271.017C540.692 271.647 542.522 272.553 543.949 273.736C545.029 274.63 545.826 275.777 546.338 277.176C546.667 278.087 546.832 279.807 546.832 282.336V291.207C546.832 293.699 546.878 295.242 546.969 295.839C547.061 296.416 547.207 296.828 547.409 297.075C547.628 297.327 547.875 297.492 548.15 297.569C548.443 297.652 548.699 297.658 548.919 297.587C549.303 297.448 550.044 296.963 551.143 296.131V297.729C549.093 300.003 547.134 300.877 545.267 300.351C544.37 300.098 543.657 299.573 543.126 298.777C542.595 297.981 542.32 296.8 542.302 295.236ZM542.302 293.381V283.426C539.538 283.788 537.754 284.093 536.949 284.341C535.503 284.77 534.469 285.353 533.846 286.09C533.224 286.828 532.913 287.738 532.913 288.822C532.913 290.191 533.306 291.443 534.093 292.578C534.88 293.694 535.786 294.396 536.811 294.685C538.202 295.078 540.033 294.643 542.302 293.381ZM561.685 263.904V298.563C561.685 300.198 561.795 301.313 562.014 301.907C562.252 302.507 562.609 303.017 563.085 303.436C563.561 303.837 564.449 304.22 565.748 304.586V305.613L553.421 302.137V301.11C554.574 301.435 555.361 301.533 555.782 301.405C556.203 301.276 556.533 300.961 556.771 300.457C557.009 299.954 557.128 298.894 557.128 297.277V273.544C557.128 270.597 557.064 268.772 556.935 268.07C556.807 267.349 556.597 266.824 556.304 266.494C556.029 266.17 555.672 265.945 555.233 265.822C554.757 265.687 554.153 265.669 553.421 265.767L552.955 264.637L560.45 263.556L561.685 263.904ZM577.334 268.318V302.976C577.334 304.612 577.444 305.727 577.663 306.321C577.901 306.921 578.258 307.43 578.734 307.85C579.21 308.25 580.098 308.633 581.397 309V310.027L569.07 306.55V305.523C570.223 305.849 571.01 305.947 571.431 305.818C571.852 305.69 572.182 305.374 572.42 304.871C572.658 304.367 572.777 303.307 572.777 301.691V277.958C572.777 275.01 572.713 273.185 572.584 272.484C572.456 271.763 572.246 271.238 571.953 270.908C571.678 270.583 571.322 270.359 570.882 270.235C570.406 270.101 569.802 270.083 569.07 270.18L568.604 269.05L576.099 267.969L577.334 268.318ZM600.588 288.54V297.44L599.682 297.184C598.986 294.193 598.09 292.038 596.991 290.72C595.912 289.408 594.53 288.514 592.846 288.039C591.565 287.678 590.53 287.738 589.743 288.22C588.956 288.701 588.563 289.37 588.563 290.226C588.563 291.291 588.856 292.286 589.441 293.212C590.009 294.152 591.162 295.304 592.901 296.669L596.909 299.825C600.625 302.756 602.482 305.761 602.482 308.842C602.482 311.219 601.613 312.895 599.874 313.869C598.154 314.829 596.223 315.007 594.081 314.403C592.544 313.969 590.787 313.188 588.81 312.06C588.206 311.7 587.712 311.465 587.327 311.357C586.906 311.238 586.577 311.393 586.339 311.82L585.433 311.564V302.237L586.339 302.492C586.852 305.299 587.831 307.582 589.277 309.34C590.723 311.098 592.342 312.229 594.136 312.735C595.399 313.091 596.424 313 597.211 312.462C598.016 311.909 598.419 311.091 598.419 310.007C598.419 308.695 597.971 307.465 597.074 306.318C596.195 305.177 594.429 303.547 591.775 301.429C589.121 299.312 587.382 297.585 586.559 296.25C585.735 294.934 585.323 293.448 585.323 291.794C585.323 289.645 586.028 288.047 587.437 286.999C588.865 285.956 590.704 285.752 592.956 286.387C593.944 286.666 595.143 287.223 596.552 288.058C597.486 288.606 598.108 288.924 598.419 289.012C598.712 289.095 598.941 289.093 599.105 289.006C599.27 288.919 599.462 288.679 599.682 288.284L600.588 288.54Z" fill="#C8C8C8"/>
<path d="M389.167 399.81C384.547 399.587 381.748 399.425 380.769 399.324C379.311 399.17 378.02 398.948 376.897 398.657C375.148 398.205 374.306 397.698 374.371 397.135C374.455 396.577 375.481 396.08 377.449 395.643C378.693 395.367 380.046 395.2 381.508 395.141C383.525 395.056 386.021 395.131 388.994 395.364C391.986 395.603 396.453 396.107 402.395 396.876L403.397 396.654C405.941 396.09 407.281 395.598 407.418 395.179C407.573 394.764 406.886 394.359 405.358 393.964C404.198 393.664 402.962 393.496 401.65 393.46C400.319 393.419 399.245 393.489 398.428 393.67L396.868 394.043C396.014 394.232 395.134 394.321 394.228 394.31C393.34 394.303 392.547 394.21 391.847 394.029C391.166 393.853 390.846 393.654 390.886 393.433C390.946 393.216 391.393 393.015 392.228 392.83C393.825 392.476 396.102 392.36 399.059 392.482C402.016 392.605 404.958 393.044 407.885 393.801C410.132 394.382 411.592 394.942 412.267 395.483C412.778 395.891 412.678 396.298 411.969 396.703C411.502 396.966 410.034 397.371 407.564 397.918L398.903 399.839C396.471 400.378 395.023 400.722 394.558 400.869C394.111 401.012 393.897 401.131 393.913 401.224C393.949 401.323 394.104 401.407 394.381 401.479C394.675 401.555 394.998 401.607 395.349 401.636C395.977 401.682 397.4 401.724 399.619 401.763L398.059 402.109C393.212 402.193 389.85 401.993 387.972 401.507C387.07 401.274 386.667 401.018 386.765 400.74C386.862 400.462 387.663 400.152 389.167 399.81ZM390.977 399.408L400.696 397.253C396.802 396.781 394.218 396.492 392.943 396.385C390.672 396.191 388.778 396.111 387.261 396.147C385.743 396.183 384.456 396.318 383.397 396.553C382.061 396.849 381.343 397.198 381.243 397.601C381.162 397.999 381.637 398.331 382.668 398.598C384.068 398.96 386.837 399.23 390.977 399.408ZM424.33 400.528C430.214 400.399 434.573 400.701 437.408 401.434C440.004 402.105 441.146 402.94 440.833 403.938C440.538 404.932 438.45 405.859 434.57 406.72C430.04 407.724 424.901 408.148 419.152 407.99C414.216 407.855 410.174 407.381 407.026 406.567C405.553 406.186 404.321 405.739 403.332 405.224C402.36 404.714 401.621 404.136 401.115 403.487L427.543 397.626C430.439 396.984 432.148 396.57 432.669 396.383C433.209 396.202 433.452 396.046 433.399 395.917C433.345 395.787 433.098 395.665 432.656 395.551C432.14 395.417 431.347 395.284 430.277 395.15L430.865 394.833L441.579 396.105L442.822 396.427L424.33 400.528ZM422.548 400.923L407.287 404.307C407.297 404.756 407.559 405.162 408.07 405.526C408.619 405.891 409.418 406.209 410.467 406.48C412.142 406.914 414.626 407.11 417.919 407.07C421.23 407.034 424.659 406.623 428.205 405.836C431.473 405.112 433.252 404.368 433.542 403.605C433.87 402.842 433.113 402.223 431.272 401.747C430.296 401.495 429.07 401.298 427.593 401.157C426.485 401.049 424.803 400.971 422.548 400.923ZM467.18 409.131L458.491 411.058L457.58 410.823C459.609 410.036 460.564 409.391 460.443 408.888C460.341 408.389 459.443 407.92 457.749 407.482C456.46 407.149 455.076 406.956 453.598 406.904C452.119 406.851 450.962 406.918 450.126 407.103C449.087 407.334 448.49 407.608 448.337 407.925C448.146 408.241 448.499 408.72 449.394 409.362L451.448 410.843C453.348 412.216 452.794 413.237 449.786 413.904C447.466 414.419 444.716 414.608 441.537 414.473C438.395 414.339 435.748 413.993 433.593 413.436C432.047 413.036 430.558 412.517 429.126 411.88C428.704 411.682 428.3 411.532 427.913 411.432C427.49 411.323 426.917 411.291 426.195 411.336L425.284 411.1L434.39 409.081L435.302 409.316C433.218 410.026 432.244 410.715 432.381 411.384C432.517 412.052 433.487 412.619 435.292 413.086C436.562 413.414 437.964 413.599 439.499 413.639C441.07 413.679 442.385 413.582 443.443 413.347C444.724 413.063 445.35 412.708 445.32 412.281C445.309 411.859 444.637 411.155 443.304 410.168C441.971 409.182 441.429 408.462 441.677 408.009C441.907 407.56 442.829 407.156 444.445 406.798C446.543 406.333 449.006 406.127 451.835 406.181C454.682 406.239 457.238 406.561 459.502 407.146C460.496 407.403 461.489 407.763 462.48 408.224C463.14 408.528 463.627 408.721 463.94 408.802C464.234 408.878 464.53 408.923 464.825 408.937C465.121 408.951 465.602 408.937 466.268 408.896L467.18 409.131ZM485.242 413.801C489.071 414.791 490.679 415.911 490.066 417.162C489.529 418.227 487.637 419.12 484.388 419.84C482.104 420.347 479.249 420.719 475.824 420.957C472.398 421.195 469.134 421.198 466.031 420.966C462.946 420.74 460.235 420.324 457.897 419.719C454.085 418.734 452.588 417.611 453.406 416.351C454.09 415.289 456.038 414.401 459.25 413.689C461.589 413.17 464.481 412.803 467.924 412.588C471.405 412.373 474.632 412.387 477.605 412.629C480.597 412.868 483.143 413.258 485.242 413.801ZM482.575 413.981C481.599 413.729 480.317 413.54 478.729 413.415C477.178 413.29 475.365 413.312 473.291 413.48C471.216 413.648 469.028 413.988 466.726 414.498C463.013 415.322 460.537 416.22 459.3 417.193C458.081 418.171 458.668 418.969 461.061 419.588C462.847 420.05 465.063 420.266 467.708 420.236C470.353 420.207 473.486 419.791 477.106 418.988C481.636 417.983 484.234 416.943 484.901 415.866C485.376 415.133 484.601 414.505 482.575 413.981ZM508.551 419.827L502.814 421.1C508.756 420.799 512.84 420.936 515.068 421.512C516.081 421.774 516.603 422.061 516.635 422.372C516.685 422.679 516.301 422.924 515.484 423.105C514.76 423.265 513.908 423.339 512.928 423.327C511.948 423.314 511.127 423.222 510.464 423.051C509.82 422.884 509.408 422.626 509.229 422.277C509.087 421.928 508.823 421.704 508.436 421.604C508.105 421.518 507.56 421.466 506.802 421.449C505.213 421.403 503.103 421.46 500.474 421.618L488.249 424.33C486.838 424.643 485.945 424.925 485.571 425.176C485.309 425.349 485.315 425.551 485.588 425.782C485.862 426.013 486.569 426.276 487.71 426.571L486.708 426.794L473.755 423.445L474.758 423.223C476.047 423.556 477.208 423.758 478.243 423.829C479 423.882 479.796 423.861 480.63 423.764C481.037 423.718 481.984 423.53 483.469 423.201L493.355 421.008C496.326 420.35 498.025 419.942 498.453 419.785C498.918 419.629 499.115 419.479 499.044 419.336C498.991 419.197 498.725 419.066 498.246 418.942C497.675 418.795 496.892 418.659 495.895 418.535L496.622 418.241L507.391 419.527L508.551 419.827ZM521.764 425.718C527.647 425.589 532.007 425.892 534.842 426.625C537.438 427.296 538.58 428.131 538.266 429.129C537.972 430.122 535.884 431.05 532.004 431.91C527.474 432.915 522.334 433.338 516.585 433.181C511.65 433.046 507.608 432.572 504.459 431.758C502.986 431.377 501.755 430.929 500.765 430.415C499.794 429.905 499.055 429.326 498.549 428.678L524.977 422.817C527.873 422.175 529.582 421.76 530.103 421.574C530.643 421.392 530.886 421.237 530.832 421.107C530.779 420.977 530.532 420.855 530.09 420.741C529.574 420.608 528.781 420.474 527.711 420.34L528.299 420.024L539.013 421.296L540.256 421.617L521.764 425.718ZM519.982 426.113L504.721 429.498C504.731 429.946 504.992 430.353 505.504 430.717C506.052 431.082 506.851 431.4 507.901 431.671C509.576 432.104 512.06 432.301 515.353 432.26C518.664 432.224 522.093 431.813 525.639 431.027C528.906 430.302 530.686 429.558 530.976 428.795C531.304 428.033 530.547 427.414 528.706 426.938C527.73 426.685 526.504 426.489 525.027 426.348C523.919 426.24 522.237 426.161 519.982 426.113ZM542.158 433.492C538.352 434.327 536.293 435.222 535.98 436.175C535.668 437.129 536.754 437.927 539.24 438.57C540.897 438.998 542.788 439.268 544.913 439.381C547.074 439.494 549.684 439.41 552.74 439.131L553.039 439.475C550.109 439.94 546.665 440.164 542.708 440.148C538.769 440.129 535.4 439.757 532.601 439.034C529.564 438.248 528.147 437.311 528.35 436.222C528.591 435.134 530.726 434.144 534.755 433.25C539.118 432.282 543.62 431.815 548.262 431.846C552.94 431.879 556.955 432.328 560.306 433.195C563.141 433.928 564.523 434.74 564.452 435.631C564.4 436.518 562.796 437.312 559.639 438.012L542.158 433.492ZM543.773 433.134L555.483 436.161C557.024 435.775 557.982 435.47 558.356 435.245C558.935 434.896 559.062 434.536 558.735 434.166C558.427 433.801 557.776 433.49 556.782 433.233C555.254 432.838 553.279 432.617 550.857 432.571C548.472 432.525 546.11 432.713 543.773 433.134ZM580.797 438.506L575.061 439.778C581.002 439.478 585.087 439.615 587.315 440.191C588.328 440.453 588.85 440.739 588.881 441.051C588.932 441.358 588.548 441.602 587.731 441.783C587.007 441.944 586.155 442.018 585.175 442.005C584.195 441.993 583.374 441.901 582.711 441.729C582.067 441.563 581.655 441.305 581.476 440.955C581.334 440.607 581.07 440.382 580.683 440.282C580.352 440.197 579.807 440.145 579.049 440.127C577.46 440.082 575.35 440.139 572.721 440.297L560.496 443.008C559.085 443.321 558.192 443.603 557.818 443.854C557.556 444.027 557.562 444.229 557.835 444.461C558.108 444.692 558.816 444.955 559.957 445.25L558.955 445.472L546.002 442.124L547.005 441.901C548.294 442.235 549.455 442.437 550.49 442.508C551.247 442.561 552.043 442.54 552.877 442.443C553.284 442.397 554.231 442.209 555.716 441.88L565.602 439.687C568.573 439.028 570.272 438.621 570.7 438.464C571.165 438.308 571.362 438.158 571.291 438.014C571.238 437.876 570.972 437.745 570.493 437.621C569.922 437.473 569.139 437.338 568.142 437.214L568.868 436.92L579.638 438.206L580.797 438.506Z" fill="#717171"/>
<path d="M289 249.892L541.107 318.392V488.444L289 420.892V249.892Z" fill="url(#paint0_linear)" stroke="#5A5A5A" stroke-width="3" stroke-linejoin="round"/>
<path d="M673 192.926L541 318.295V488.392L673 453.023V192.926Z" stroke="#5A5A5A" stroke-width="3" stroke-linejoin="round"/>
<path d="M541 318.392L673 193.023L421 124.523L289 249.892L541 318.392Z" stroke="#5A5A5A" stroke-width="3" stroke-linejoin="round"/>
<path d="M367.277 333.775C365.74 332.562 364.559 331.145 363.735 329.524C362.912 327.885 362.5 326.219 362.5 324.526C362.5 321.94 363.433 319.978 365.3 318.641C367.185 317.309 369.592 317.056 372.521 317.882C374.918 318.558 376.996 319.753 378.753 321.465L384.079 322.967C384.866 323.189 385.324 323.347 385.452 323.44C385.58 323.514 385.671 323.616 385.726 323.746C385.836 323.948 385.891 324.268 385.891 324.705C385.891 325.199 385.845 325.529 385.754 325.693C385.699 325.773 385.598 325.82 385.452 325.836C385.324 325.857 384.866 325.757 384.079 325.535L380.812 324.613C381.837 326.272 382.349 328.166 382.349 330.296C382.349 332.73 381.453 334.559 379.659 335.784C377.865 337.008 375.458 337.195 372.438 336.343C371.194 335.992 369.922 335.443 368.622 334.696C367.817 335.192 367.268 335.674 366.975 336.143C366.7 336.598 366.563 337.016 366.563 337.396C366.563 337.719 366.71 338.074 367.002 338.461C367.314 338.853 367.908 339.24 368.787 339.621C369.299 339.841 370.581 340.269 372.631 340.904C376.401 342.063 378.844 342.885 379.961 343.371C381.663 344.098 383.017 345.136 384.024 346.485C385.049 347.839 385.562 349.296 385.562 350.855C385.562 353.004 384.592 354.747 382.651 356.082C379.796 358.053 376.072 358.391 371.477 357.095C367.945 356.099 364.962 354.43 362.527 352.089C361.155 350.751 360.468 349.569 360.468 348.542C360.468 348.086 360.569 347.658 360.77 347.258C361.081 346.642 361.722 345.843 362.692 344.862C362.82 344.727 363.754 343.963 365.492 342.571C364.541 341.713 363.863 340.999 363.461 340.429C363.076 339.845 362.884 339.259 362.884 338.669C362.884 338.004 363.14 337.296 363.653 336.547C364.184 335.803 365.392 334.879 367.277 333.775ZM372.054 319.12C370.7 318.738 369.565 318.979 368.65 319.842C367.735 320.706 367.277 322.298 367.277 324.618C367.277 327.623 367.899 330.128 369.144 332.134C370.096 333.657 371.304 334.625 372.768 335.038C374.159 335.431 375.303 335.211 376.2 334.38C377.096 333.549 377.545 331.974 377.545 329.654C377.545 326.63 376.913 324.084 375.651 322.017C374.717 320.498 373.518 319.532 372.054 319.12ZM367.002 343.225C366.142 343.952 365.492 344.672 365.053 345.385C364.614 346.098 364.394 346.806 364.394 347.51C364.394 348.423 364.925 349.371 365.987 350.355C367.817 352.05 370.462 353.386 373.921 354.361C377.215 355.291 379.641 355.366 381.196 354.588C382.77 353.834 383.557 352.772 383.557 351.403C383.557 350.414 383.091 349.579 382.157 348.897C381.205 348.21 379.32 347.431 376.502 346.56C372.383 345.285 369.217 344.173 367.002 343.225ZM397.312 311.21V345.869C397.312 347.504 397.422 348.619 397.642 349.213C397.879 349.813 398.236 350.322 398.712 350.742C399.188 351.142 400.076 351.526 401.375 351.892V352.919L389.048 349.443V348.416C390.201 348.741 390.988 348.839 391.409 348.711C391.83 348.582 392.16 348.266 392.398 347.763C392.636 347.26 392.755 346.2 392.755 344.583V320.85C392.755 317.902 392.691 316.078 392.562 315.376C392.434 314.655 392.224 314.13 391.931 313.8C391.656 313.476 391.3 313.251 390.86 313.127C390.384 312.993 389.78 312.975 389.048 313.073L388.582 311.943L396.077 310.862L397.312 311.21ZM418.562 354.001C415.981 355.346 414.361 356.087 413.702 356.225C412.714 356.421 411.662 356.362 410.545 356.047C408.806 355.557 407.37 354.534 406.235 352.978C405.118 351.427 404.56 349.643 404.56 347.627C404.56 346.353 404.835 345.328 405.384 344.551C406.134 343.469 407.434 342.619 409.282 341.999C411.149 341.384 414.242 340.869 418.562 340.451V339.424C418.562 336.819 418.159 334.918 417.354 333.721C416.567 332.529 415.414 331.719 413.895 331.291C412.741 330.965 411.826 331.031 411.149 331.486C410.454 331.937 410.106 332.58 410.106 333.417L410.161 335.087C410.161 335.962 409.941 336.575 409.502 336.926C409.081 337.283 408.523 337.363 407.827 337.167C407.15 336.976 406.592 336.572 406.152 335.953C405.731 335.34 405.521 334.606 405.521 333.75C405.521 332.114 406.326 330.839 407.937 329.924C409.548 329.009 411.808 328.962 414.718 329.783C416.951 330.413 418.781 331.319 420.209 332.501C421.289 333.395 422.085 334.542 422.598 335.942C422.927 336.852 423.092 338.572 423.092 341.101V349.973C423.092 352.464 423.138 354.008 423.229 354.604C423.321 355.181 423.467 355.594 423.668 355.841C423.888 356.093 424.135 356.257 424.41 356.335C424.702 356.417 424.959 356.423 425.178 356.352C425.563 356.213 426.304 355.728 427.402 354.897V356.494C425.352 358.769 423.394 359.643 421.527 359.116C420.63 358.863 419.916 358.338 419.385 357.542C418.855 356.746 418.58 355.566 418.562 354.001ZM418.562 352.147V342.191C415.798 342.553 414.014 342.858 413.208 343.106C411.762 343.535 410.728 344.118 410.106 344.856C409.484 345.593 409.172 346.504 409.172 347.588C409.172 348.957 409.566 350.209 410.353 351.344C411.14 352.459 412.046 353.162 413.071 353.451C414.462 353.843 416.292 353.408 418.562 352.147ZM445.549 338.478V347.378L444.643 347.123C443.948 344.131 443.051 341.976 441.953 340.659C440.873 339.346 439.491 338.453 437.807 337.978C436.526 337.616 435.492 337.676 434.705 338.158C433.918 338.64 433.524 339.309 433.524 340.164C433.524 341.229 433.817 342.225 434.403 343.151C434.97 344.09 436.123 345.243 437.862 346.608L441.871 349.764C445.586 352.694 447.444 355.7 447.444 358.781C447.444 361.158 446.574 362.833 444.836 363.807C443.115 364.767 441.184 364.945 439.043 364.341C437.505 363.908 435.748 363.127 433.772 361.999C433.168 361.638 432.673 361.404 432.289 361.295C431.868 361.177 431.539 361.331 431.301 361.758L430.395 361.503V352.175L431.301 352.431C431.813 355.237 432.792 357.52 434.238 359.278C435.684 361.036 437.304 362.168 439.098 362.674C440.361 363.03 441.386 362.939 442.173 362.4C442.978 361.847 443.381 361.029 443.381 359.945C443.381 358.633 442.932 357.404 442.035 356.257C441.157 355.115 439.391 353.486 436.737 351.368C434.083 349.25 432.344 347.524 431.52 346.188C430.697 344.872 430.285 343.387 430.285 341.732C430.285 339.583 430.989 337.985 432.399 336.937C433.826 335.895 435.666 335.691 437.917 336.326C438.906 336.604 440.104 337.161 441.514 337.996C442.447 338.545 443.069 338.863 443.381 338.95C443.673 339.033 443.902 339.031 444.067 338.944C444.232 338.858 444.424 338.617 444.643 338.223L445.549 338.478ZM467.458 344.657V353.557L466.552 353.301C465.857 350.31 464.96 348.155 463.862 346.838C462.782 345.525 461.4 344.631 459.716 344.157C458.435 343.795 457.401 343.855 456.614 344.337C455.827 344.819 455.433 345.487 455.433 346.343C455.433 347.408 455.726 348.404 456.312 349.329C456.879 350.269 458.032 351.422 459.771 352.787L463.779 355.942C467.495 358.873 469.352 361.879 469.352 364.959C469.352 367.337 468.483 369.012 466.744 369.986C465.024 370.946 463.093 371.124 460.951 370.52C459.414 370.087 457.657 369.306 455.68 368.178C455.076 367.817 454.582 367.583 454.198 367.474C453.777 367.356 453.447 367.51 453.209 367.937L452.303 367.682V358.354L453.209 358.609C453.722 361.416 454.701 363.699 456.147 365.457C457.593 367.215 459.213 368.347 461.006 368.853C462.269 369.209 463.294 369.118 464.081 368.579C464.887 368.026 465.289 367.208 465.289 366.124C465.289 364.812 464.841 363.582 463.944 362.436C463.065 361.294 461.299 359.664 458.645 357.547C455.991 355.429 454.253 353.703 453.429 352.367C452.605 351.051 452.193 349.566 452.193 347.911C452.193 345.762 452.898 344.164 454.307 343.116C455.735 342.073 457.575 341.87 459.826 342.505C460.814 342.783 462.013 343.34 463.422 344.175C464.356 344.723 464.978 345.042 465.289 345.129C465.582 345.212 465.811 345.21 465.976 345.123C466.14 345.037 466.332 344.796 466.552 344.402L467.458 344.657Z" fill="#9ED2DE"/>
<path d="M533.113 510.314L521.959 500.658V513.992L533.113 510.314ZM288.654 444.811L299.808 454.467V441.133L288.654 444.811ZM523.075 506.469L298.692 446.346V448.656L523.075 508.779V506.469Z" fill="black"/>
<rect width="32" height="37" transform="matrix(0.965926 0.258819 0 1 395.354 453.318)" fill="white"/>
<path d="M415.787 466.348L410.739 482.772C410.444 483.746 410.297 484.364 410.297 484.627C410.297 484.764 410.338 484.891 410.419 485.007C410.51 485.127 410.607 485.2 410.709 485.227C410.892 485.276 411.064 485.249 411.227 485.145C411.715 484.865 412.259 484.316 412.859 483.498L413.454 483.942C412.488 485.283 411.537 486.17 410.602 486.604C409.961 486.895 409.28 486.944 408.558 486.751C407.887 486.571 407.354 486.244 406.957 485.769C406.561 485.284 406.362 484.778 406.362 484.252C406.362 483.863 406.484 483.269 406.728 482.471L410.846 469.018C411.07 468.278 411.181 467.777 411.181 467.514C411.181 467.261 411.075 467.032 410.861 466.828C410.576 466.541 410.144 466.336 409.565 466.212L409.733 465.657L414.872 466.103L415.787 466.348Z" fill="black"/>
<path d="M674.339 476.78L663.185 473.102V486.436L674.339 476.78ZM549.654 510.19L560.808 513.868V500.534L549.654 510.19ZM664.3 478.315L559.692 506.345V508.654L664.3 480.625V478.315Z" fill="black"/>
<rect width="32" height="37" transform="matrix(0.965926 -0.258819 0 1 596.467 477.563)" fill="white"/>
<path d="M614.383 487.579L615.512 498.36C617.047 496.38 618.048 494.875 618.516 493.845C618.984 492.804 619.217 491.978 619.217 491.367C619.217 491.136 619.167 490.918 619.065 490.714C618.963 490.509 618.76 490.243 618.455 489.914C618.15 489.585 617.977 489.374 617.936 489.279C617.865 489.098 617.83 488.866 617.83 488.582C617.83 488.045 618.008 487.545 618.363 487.081C618.719 486.607 619.167 486.297 619.705 486.153C620.244 486.009 620.671 486.084 620.986 486.378C621.434 486.806 621.657 487.377 621.657 488.093C621.657 489.261 621.119 490.937 620.041 493.12C618.963 495.304 616.503 498.636 612.66 503.118L612.05 503.282L611.105 493.841L604.517 505.3L603.861 505.476C604.013 502.509 604.09 499.752 604.09 497.205C604.09 495.542 604.003 494.365 603.83 493.675C603.729 493.271 603.546 492.993 603.281 492.843C603.027 492.69 602.748 492.655 602.443 492.736C602.28 492.78 602.072 492.857 601.817 492.967V492.383L607.063 489.54C607.348 490.285 607.541 491.007 607.643 491.706C607.816 492.775 607.902 494.052 607.902 495.536C607.902 496.062 607.882 496.868 607.841 497.952L613.743 487.751L614.383 487.579Z" fill="black"/>
<path d="M693.917 448.619L700.584 437.071L687.25 437.071L693.917 448.619ZM693.917 195.536L687.25 207.083L700.584 207.083L693.917 195.536ZM695.071 438.226L695.071 205.929L692.762 205.929L692.762 438.226L695.071 438.226Z" fill="black"/>
<rect x="681.5" y="303.5" width="30" height="37" fill="white"/>
<path d="M696.698 310.049L692.593 324.274C694.014 322.179 695.045 320.763 695.687 320.027C696.645 318.964 697.466 318.248 698.15 317.88C698.845 317.501 699.508 317.311 700.139 317.311C700.676 317.311 701.134 317.516 701.513 317.927C701.902 318.327 702.097 318.864 702.097 319.537C702.097 320.106 701.971 320.816 701.718 321.669L699.713 328.394C699.534 328.984 699.445 329.378 699.445 329.578C699.445 329.673 699.481 329.762 699.555 329.847C699.629 329.92 699.713 329.957 699.808 329.957C699.934 329.957 700.06 329.905 700.187 329.799C700.523 329.536 700.881 329.115 701.26 328.536C701.355 328.389 701.508 328.168 701.718 327.873L702.334 328.221C701.429 329.715 700.571 330.741 699.76 331.299C698.95 331.857 698.182 332.136 697.455 332.136C696.803 332.136 696.292 331.967 695.924 331.631C695.556 331.294 695.371 330.873 695.371 330.368C695.371 329.905 695.498 329.247 695.75 328.394L697.708 321.669C697.834 321.205 697.897 320.869 697.897 320.658C697.897 320.542 697.85 320.442 697.755 320.358C697.671 320.263 697.571 320.216 697.455 320.216C697.076 320.216 696.555 320.532 695.892 321.163C694.524 322.458 693.156 324.489 691.788 327.257L690.382 331.946L686.467 331.946L691.645 314.106C691.856 313.348 691.961 312.806 691.961 312.48C691.961 312.217 691.856 312.012 691.645 311.864C691.372 311.664 690.951 311.58 690.382 311.612L690.493 310.98L695.75 310.049L696.698 310.049Z" fill="black"/>
<g filter="url(#filter0_d)">
<circle cx="134" cy="176" r="44" fill="#FFF8B0"/>
</g>
<path d="M327.897 373.939L326.403 373.804L326.403 373.804L327.897 373.939ZM327.881 374.119L326.387 373.984L326.387 373.984L327.881 374.119ZM312.598 359.3L312.417 357.811L312.417 357.812L312.598 359.3ZM312.778 359.279L312.959 360.768L312.959 360.768L312.778 359.279ZM364.031 409.172L359.291 392.513L347.233 404.947L364.031 409.172ZM312.419 359.322L312.238 357.833L312.238 357.833L312.419 359.322ZM297.316 344.482L295.822 344.347L295.822 344.347L297.316 344.482ZM297.3 344.662L298.794 344.797L298.794 344.797L297.3 344.662ZM297.332 344.302L295.838 344.167L295.838 344.167L297.332 344.302ZM282.034 329.663L282.215 331.152L282.215 331.152L282.034 329.663ZM282.213 329.642L282.394 331.131L282.394 331.131L282.213 329.642ZM281.854 329.685L281.673 328.196L281.673 328.196L281.854 329.685ZM266.751 314.845L268.245 314.98L268.245 314.98L266.751 314.845ZM266.735 315.025L268.229 315.16L268.229 315.16L266.735 315.025ZM266.768 314.665L265.274 314.53L265.274 314.53L266.768 314.665ZM251.469 300.026L251.288 298.537L251.288 298.537L251.469 300.026ZM251.29 300.048L251.108 298.559L251.108 298.559L251.29 300.048ZM236.187 285.208L237.681 285.343L237.681 285.343L236.187 285.208ZM220.904 270.389L220.723 268.9L220.723 268.9L220.904 270.389ZM323.372 363.479C325.276 365.326 326.068 366.901 326.394 368.418C326.735 370.008 326.598 371.649 326.403 373.804L329.391 374.075C329.578 372.013 329.781 369.903 329.327 367.788C328.857 365.598 327.717 363.514 325.46 361.325L323.372 363.479ZM326.403 373.804L326.387 373.984L329.375 374.254L329.391 374.074L326.403 373.804ZM312.78 360.789L312.959 360.768L312.596 357.79L312.417 357.811L312.78 360.789ZM312.959 360.768C315.106 360.506 316.742 360.319 318.343 360.611C319.868 360.89 321.468 361.633 323.372 363.479L325.46 361.325C323.204 359.137 321.085 358.062 318.882 357.66C316.754 357.271 314.651 357.539 312.596 357.79L312.959 360.768ZM326.387 373.984C326.192 376.137 326.052 378.336 326.578 380.551C327.116 382.818 328.319 384.991 330.607 387.209L332.695 385.055C330.762 383.181 329.886 381.499 329.497 379.858C329.095 378.166 329.18 376.404 329.375 374.254L326.387 373.984ZM347.264 390.824C344.445 388.091 341.424 387.629 338.884 387.286C336.302 386.938 334.397 386.705 332.695 385.055L330.607 387.209C333.125 389.651 336.059 389.932 338.483 390.259C340.95 390.593 343.103 390.969 345.175 392.978L347.264 390.824ZM345.175 392.978L353.295 400.851L355.383 398.697L347.264 390.824L345.175 392.978ZM202.133 254.277C204.193 256.275 204.566 258.328 204.897 260.696C205.226 263.042 205.51 265.909 208.042 268.365L210.131 266.211C208.443 264.575 208.217 262.769 207.868 260.28C207.523 257.812 207.051 254.867 204.221 252.123L202.133 254.277ZM299.736 357.276C301.993 359.464 304.112 360.539 306.315 360.941C308.443 361.33 310.545 361.062 312.601 360.811L312.238 357.833C310.09 358.095 308.454 358.282 306.854 357.99C305.328 357.711 303.729 356.968 301.825 355.122L299.736 357.276ZM312.6 360.811L312.78 360.789L312.417 357.812L312.238 357.833L312.6 360.811ZM295.822 344.347L295.806 344.526L298.794 344.797L298.81 344.617L295.822 344.347ZM295.806 344.526C295.619 346.588 295.415 348.698 295.87 350.813C296.34 353.003 297.479 355.087 299.736 357.276L301.825 355.122C299.92 353.275 299.128 351.7 298.803 350.183C298.461 348.593 298.598 346.951 298.794 344.797L295.806 344.526ZM292.807 333.842C294.712 335.689 295.504 337.264 295.829 338.781C296.171 340.371 296.034 342.013 295.838 344.167L298.826 344.438C299.013 342.376 299.216 340.266 298.762 338.151C298.292 335.961 297.153 333.877 294.896 331.688L292.807 333.842ZM295.838 344.167L295.822 344.347L298.81 344.617L298.826 344.438L295.838 344.167ZM282.215 331.152L282.394 331.131L282.031 328.153L281.852 328.174L282.215 331.152ZM282.394 331.131C284.541 330.869 286.178 330.682 287.778 330.974C289.304 331.253 290.903 331.996 292.807 333.842L294.896 331.688C292.639 329.5 290.52 328.425 288.317 328.023C286.189 327.634 284.087 327.902 282.031 328.153L282.394 331.131ZM269.172 327.639C271.428 329.827 273.547 330.902 275.75 331.304C277.878 331.693 279.981 331.425 282.036 331.174L281.673 328.196C279.526 328.458 277.889 328.645 276.289 328.353C274.764 328.074 273.164 327.331 271.26 325.485L269.172 327.639ZM282.036 331.174L282.215 331.152L281.852 328.174L281.673 328.196L282.036 331.174ZM265.257 314.71L265.241 314.889L268.229 315.16L268.245 314.98L265.257 314.71ZM265.241 314.889C265.054 316.951 264.851 319.061 265.305 321.176C265.775 323.366 266.915 325.45 269.172 327.639L271.26 325.485C269.356 323.638 268.564 322.063 268.238 320.546C267.897 318.956 268.033 317.314 268.229 315.16L265.241 314.889ZM262.243 304.205C264.147 306.052 264.939 307.627 265.264 309.144C265.606 310.734 265.469 312.375 265.274 314.53L268.261 314.801C268.448 312.739 268.652 310.629 268.198 308.514C267.728 306.324 266.588 304.24 264.331 302.051L262.243 304.205ZM265.274 314.53L265.257 314.71L268.245 314.98L268.261 314.8L265.274 314.53ZM251.65 301.515C253.853 301.248 255.517 301.041 257.146 301.325C258.694 301.594 260.312 302.333 262.243 304.205L264.331 302.051C262.041 299.831 259.895 298.758 257.661 298.369C255.509 297.995 253.374 298.284 251.288 298.537L251.65 301.515ZM238.607 298.002C240.864 300.19 242.983 301.265 245.185 301.667C247.314 302.056 249.416 301.788 251.471 301.537L251.108 298.559C248.961 298.821 247.325 299.008 245.724 298.716C244.199 298.437 242.599 297.694 240.695 295.848L238.607 298.002ZM251.471 301.537L251.65 301.515L251.288 298.537L251.108 298.559L251.471 301.537ZM234.693 285.073C234.503 287.166 234.28 289.309 234.721 291.448C235.179 293.669 236.317 295.781 238.607 298.002L240.695 295.848C238.765 293.976 237.976 292.382 237.659 290.843C237.326 289.222 237.481 287.553 237.681 285.343L234.693 285.073ZM231.678 274.568C233.608 276.44 234.397 278.034 234.714 279.573C235.048 281.194 234.893 282.863 234.693 285.073L237.681 285.343C237.87 283.25 238.093 281.107 237.652 278.968C237.195 276.747 236.056 274.635 233.766 272.414L231.678 274.568ZM221.085 271.878C223.288 271.611 224.952 271.404 226.582 271.688C228.13 271.957 229.748 272.696 231.678 274.568L233.766 272.414C231.477 270.194 229.33 269.121 227.096 268.732C224.944 268.358 222.809 268.647 220.723 268.9L221.085 271.878ZM208.042 268.365C210.332 270.585 212.479 271.658 214.712 272.047C216.864 272.421 218.999 272.132 221.085 271.878L220.723 268.9C218.521 269.168 216.857 269.375 215.227 269.091C213.679 268.821 212.061 268.083 210.131 266.211L208.042 268.365Z" fill="url(#paint1_linear)"/>
<path d="M518.031 449.172L513.291 432.513L501.234 444.948L518.031 449.172ZM477.372 403.479C479.303 405.351 480.091 406.945 480.408 408.484C480.742 410.105 480.587 411.774 480.387 413.984L483.375 414.254C483.564 412.161 483.787 410.018 483.347 407.879C482.889 405.658 481.751 403.546 479.461 401.325L477.372 403.479ZM466.78 400.79C468.982 400.522 470.646 400.315 472.276 400.599C473.824 400.868 475.442 401.607 477.372 403.479L479.461 401.325C477.171 399.105 475.024 398.032 472.791 397.643C470.639 397.269 468.504 397.558 466.418 397.811L466.78 400.79ZM480.387 413.984C480.192 416.137 480.052 418.336 480.578 420.551C481.116 422.818 482.319 424.991 484.607 427.209L486.695 425.055C484.763 423.181 483.886 421.499 483.497 419.858C483.095 418.166 483.18 416.404 483.375 414.254L480.387 413.984ZM501.264 430.824C498.446 428.091 495.425 427.629 492.885 427.286C490.302 426.938 488.397 426.705 486.695 425.055L484.607 427.209C487.125 429.651 490.059 429.932 492.483 430.259C494.951 430.593 497.104 430.969 499.176 432.978L501.264 430.824ZM499.176 432.978L507.295 440.851L509.384 438.698L501.264 430.824L499.176 432.978ZM447.827 383.188C449.887 385.186 450.26 387.239 450.591 389.607C450.92 391.953 451.204 394.82 453.736 397.276L455.825 395.122C454.137 393.486 453.911 391.68 453.562 389.191C453.217 386.723 452.745 383.778 449.915 381.034L447.827 383.188ZM453.736 397.276C456.026 399.496 458.173 400.569 460.407 400.958C462.558 401.332 464.694 401.043 466.78 400.79L466.418 397.811C464.215 398.079 462.551 398.286 460.921 398.002C459.373 397.733 457.755 396.994 455.825 395.122L453.736 397.276Z" fill="url(#paint2_linear)"/>
<path d="M438.337 428.261L433.597 411.602L421.54 424.037L438.337 428.261ZM397.678 382.568C399.609 384.44 400.397 386.034 400.714 387.573C401.048 389.194 400.893 390.863 400.693 393.073L403.681 393.343C403.87 391.25 404.093 389.107 403.653 386.968C403.195 384.747 402.057 382.635 399.767 380.415L397.678 382.568ZM387.086 379.879C389.288 379.611 390.952 379.404 392.582 379.688C394.13 379.958 395.748 380.697 397.678 382.568L399.767 380.415C397.477 378.194 395.33 377.121 393.097 376.733C390.945 376.358 388.81 376.647 386.724 376.901L387.086 379.879ZM400.693 393.073C400.498 395.226 400.358 397.425 400.884 399.64C401.422 401.907 402.625 404.08 404.913 406.298L407.001 404.144C405.069 402.271 404.192 400.588 403.803 398.947C403.401 397.255 403.486 395.493 403.681 393.343L400.693 393.073ZM421.57 409.914C418.752 407.181 415.731 406.719 413.191 406.376C410.608 406.027 408.703 405.795 407.001 404.144L404.913 406.298C407.431 408.74 410.365 409.021 412.789 409.349C415.256 409.682 417.41 410.058 419.482 412.067L421.57 409.914ZM419.482 412.067L427.601 419.94L429.69 417.787L421.57 409.914L419.482 412.067ZM368.133 362.277C370.193 364.275 370.566 366.328 370.897 368.696C371.226 371.042 371.51 373.909 374.042 376.365L376.131 374.211C374.443 372.575 374.217 370.769 373.868 368.28C373.523 365.812 373.051 362.867 370.221 360.123L368.133 362.277ZM374.042 376.365C376.332 378.585 378.479 379.658 380.713 380.047C382.864 380.421 385 380.132 387.086 379.879L386.724 376.901C384.521 377.169 382.857 377.375 381.227 377.091C379.679 376.822 378.061 376.083 376.131 374.211L374.042 376.365Z" fill="url(#paint3_linear)"/>
<defs>
<filter id="filter0_d" x="12" y="54" width="244" height="244" filterUnits="userSpaceOnUse" color-interpolation-filters="sRGB">
<feFlood flood-opacity="0" result="BackgroundImageFix"/>
<feColorMatrix in="SourceAlpha" type="matrix" values="0 0 0 0 0 0 0 0 0 0 0 0 0 0 0 0 0 0 127 0"/>
<feMorphology radius="4" operator="dilate" in="SourceAlpha" result="effect1_dropShadow"/>
<feOffset/>
<feGaussianBlur stdDeviation="37"/>
<feColorMatrix type="matrix" values="0 0 0 0 1 0 0 0 0 0.985632 0 0 0 0 0.583333 0 0 0 1 0"/>
<feBlend mode="normal" in2="BackgroundImageFix" result="effect1_dropShadow"/>
<feBlend mode="normal" in="SourceGraphic" in2="effect1_dropShadow" result="shape"/>
</filter>
<linearGradient id="paint0_linear" x1="314" y1="262.892" x2="381.734" y2="387.042" gradientUnits="userSpaceOnUse">
<stop stop-color="#00D1FF" stop-opacity="0.12"/>
<stop offset="0.9999" stop-color="#46DEFF" stop-opacity="0"/>
<stop offset="1" stop-color="#48DEFF" stop-opacity="0"/>
</linearGradient>
<linearGradient id="paint1_linear" x1="203.177" y1="253.2" x2="364.031" y2="409.172" gradientUnits="userSpaceOnUse">
<stop offset="0.0480419" stop-opacity="0"/>
<stop offset="0.695758"/>
</linearGradient>
<linearGradient id="paint2_linear" x1="448.871" y1="382.111" x2="518.031" y2="449.172" gradientUnits="userSpaceOnUse">
<stop offset="0.0820479" stop-opacity="0"/>
<stop offset="0.541259"/>
</linearGradient>
<linearGradient id="paint3_linear" x1="369.177" y1="361.2" x2="438.337" y2="428.261" gradientUnits="userSpaceOnUse">
<stop offset="0.0820479" stop-opacity="0"/>
<stop offset="0.541259"/>
</linearGradient>
</defs>
</svg>
